<svg width="28" height="28" viewBox="0 0 28 28" fill="none" xmlns="http://www.w3.org/2000/svg">
<g clip-path="url(#clip0_442_45)">
<path fill-rule="evenodd" clip-rule="evenodd" d="M6.18948 7.15219C10.4756 4.07404 16.6125 4.32006 20.5812 7.74699C24.5896 11.2095 25.1542 16.8639 21.8451 20.9295C18.6344 24.8741 12.7859 26.0822 8.04219 23.8997L3.02152 24.9812C2.7249 25.0451 2.41719 24.9433 2.21511 24.7144C2.01302 24.4854 1.94751 24.1644 2.04341 23.8731L3.38078 19.8109C0.781346 15.5313 1.98481 10.1731 6.18948 7.15219Z" fill="#FF0000"/>
</g>
<g clip-path="url(#clip1_442_45)">
<mask id="path-2-outside-1_442_45" maskUnits="userSpaceOnUse" x="8.875" y="1.875" width="19" height="19" fill="black">
<rect fill="white" x="8.875" y="1.875" width="19" height="19"/>
<path fill-rule="evenodd" clip-rule="evenodd" d="M25.5 2.875C25.5753 2.87491 25.6482 2.88841 25.716 2.91345C25.7989 2.94386 25.8727 2.991 25.934 3.0503C26.0046 3.11833 26.0597 3.20326 26.0922 3.29982C26.1127 3.36036 26.1241 3.42469 26.125 3.49095C26.1256 3.52806 26.1229 3.56462 26.1171 3.60032C25.7745 6.08454 24.7689 8.43068 23.2059 10.392C21.7565 12.2109 19.8776 13.6363 17.7421 14.5425C17.8574 15.2641 17.7707 16.0046 17.4904 16.6815C17.1908 17.4047 16.6834 18.023 16.0325 18.4579C15.3815 18.8928 14.6162 19.125 13.8333 19.125H10.5C10.1548 19.125 9.875 18.8452 9.875 18.5V15.1667C9.875 14.3838 10.1072 13.6185 10.5421 12.9675C10.977 12.3166 11.5953 11.8092 12.3185 11.5096C12.9955 11.2292 13.736 11.1426 14.4576 11.2579C15.3638 9.12242 16.7893 7.24352 18.6081 5.79416C20.5696 4.23104 22.9161 3.2254 25.4006 2.88287C25.4331 2.87764 25.4663 2.87496 25.5 2.875ZM15.6497 11.6497C16.0135 10.8118 16.4653 10.0182 16.9961 9.28153C18.1442 9.91112 19.089 10.8559 19.7185 12.004C18.9819 12.5348 18.1882 12.9867 17.3504 13.3504C17.1641 12.9897 16.9225 12.6579 16.6323 12.3677C16.3422 12.0776 16.0104 11.836 15.6497 11.6497ZM16.3797 14.244C16.245 13.8725 16.0302 13.5333 15.7484 13.2516C15.4667 12.9699 15.1277 12.7551 14.7563 12.6204C14.7081 12.6144 14.6599 12.6027 14.6126 12.5848C14.5876 12.5753 14.5635 12.5645 14.5405 12.5523C14.4815 12.5363 14.4219 12.5223 14.3617 12.5104C13.8363 12.4059 13.2918 12.4595 12.7969 12.6645C12.302 12.8695 11.879 13.2166 11.5814 13.662C11.2838 14.1074 11.125 14.631 11.125 15.1667V17.875H13.8333C14.369 17.875 14.8926 17.7162 15.338 17.4186C15.7834 17.121 16.1305 16.698 16.3355 16.2031C16.5405 15.7082 16.5941 15.1637 16.4896 14.6383C16.4776 14.5781 16.4637 14.5184 16.4477 14.4594C16.4356 14.4364 16.4247 14.4125 16.4153 14.3875C16.3974 14.3402 16.3857 14.2921 16.3797 14.244Z"/>
</mask>
<path fill-rule="evenodd" clip-rule="evenodd" d="M25.5 2.875C25.5753 2.87491 25.6482 2.88841 25.716 2.91345C25.7989 2.94386 25.8727 2.991 25.934 3.0503C26.0046 3.11833 26.0597 3.20326 26.0922 3.29982C26.1127 3.36036 26.1241 3.42469 26.125 3.49095C26.1256 3.52806 26.1229 3.56462 26.1171 3.60032C25.7745 6.08454 24.7689 8.43068 23.2059 10.392C21.7565 12.2109 19.8776 13.6363 17.7421 14.5425C17.8574 15.2641 17.7707 16.0046 17.4904 16.6815C17.1908 17.4047 16.6834 18.023 16.0325 18.4579C15.3815 18.8928 14.6162 19.125 13.8333 19.125H10.5C10.1548 19.125 9.875 18.8452 9.875 18.5V15.1667C9.875 14.3838 10.1072 13.6185 10.5421 12.9675C10.977 12.3166 11.5953 11.8092 12.3185 11.5096C12.9955 11.2292 13.736 11.1426 14.4576 11.2579C15.3638 9.12242 16.7893 7.24352 18.6081 5.79416C20.5696 4.23104 22.9161 3.2254 25.4006 2.88287C25.4331 2.87764 25.4663 2.87496 25.5 2.875ZM15.6497 11.6497C16.0135 10.8118 16.4653 10.0182 16.9961 9.28153C18.1442 9.91112 19.089 10.8559 19.7185 12.004C18.9819 12.5348 18.1882 12.9867 17.3504 13.3504C17.1641 12.9897 16.9225 12.6579 16.6323 12.3677C16.3422 12.0776 16.0104 11.836 15.6497 11.6497ZM16.3797 14.244C16.245 13.8725 16.0302 13.5333 15.7484 13.2516C15.4667 12.9699 15.1277 12.7551 14.7563 12.6204C14.7081 12.6144 14.6599 12.6027 14.6126 12.5848C14.5876 12.5753 14.5635 12.5645 14.5405 12.5523C14.4815 12.5363 14.4219 12.5223 14.3617 12.5104C13.8363 12.4059 13.2918 12.4595 12.7969 12.6645C12.302 12.8695 11.879 13.2166 11.5814 13.662C11.2838 14.1074 11.125 14.631 11.125 15.1667V17.875H13.8333C14.369 17.875 14.8926 17.7162 15.338 17.4186C15.7834 17.121 16.1305 16.698 16.3355 16.2031C16.5405 15.7082 16.5941 15.1637 16.4896 14.6383C16.4776 14.5781 16.4637 14.5184 16.4477 14.4594C16.4356 14.4364 16.4247 14.4125 16.4153 14.3875C16.3974 14.3402 16.3857 14.2921 16.3797 14.244Z" fill="white"/>
<path d="M25.716 2.91345L25.3697 3.85157L25.3714 3.85218L25.716 2.91345ZM25.5 2.875L25.4988 3.875L25.5013 3.875L25.5 2.875ZM25.934 3.0503L25.2391 3.76934L25.2401 3.77037L25.934 3.0503ZM26.0922 3.29982L25.1445 3.61911L25.1451 3.62089L26.0922 3.29982ZM26.125 3.49095L25.1251 3.50431L25.1251 3.50678L26.125 3.49095ZM26.1171 3.60032L25.13 3.4403L25.1281 3.45197L25.1265 3.46369L26.1171 3.60032ZM23.2059 10.392L22.4239 9.76883V9.76883L23.2059 10.392ZM17.7421 14.5425L17.3515 13.6219L16.6313 13.9276L16.7547 14.7002L17.7421 14.5425ZM17.4904 16.6815L16.5665 16.2988L16.5665 16.2988L17.4904 16.6815ZM16.0325 18.4579L16.588 19.2894H16.588L16.0325 18.4579ZM10.5421 12.9675L11.3736 13.5231H11.3736L10.5421 12.9675ZM12.3185 11.5096L11.9359 10.5858L11.9359 10.5858L12.3185 11.5096ZM14.4576 11.2579L14.2999 12.2454L15.0725 12.3688L15.3782 11.6485L14.4576 11.2579ZM18.6081 5.79416L17.9849 5.0121L17.9849 5.0121L18.6081 5.79416ZM25.4006 2.88287L25.5372 3.8735L25.5482 3.87197L25.5593 3.8702L25.4006 2.88287ZM16.9961 9.28153L17.4769 8.40471L16.7016 7.97957L16.1848 8.69696L16.9961 9.28153ZM15.6497 11.6497L14.7324 11.2515L14.3601 12.1091L15.1908 12.5382L15.6497 11.6497ZM19.7185 12.004L20.3031 12.8154L21.0205 12.2985L20.5954 11.5232L19.7185 12.004ZM17.3504 13.3504L16.4619 13.8092L16.8909 14.64L17.7486 14.2677L17.3504 13.3504ZM16.6323 12.3677L15.9252 13.0748H15.9252L16.6323 12.3677ZM15.7484 13.2516L15.0413 13.9587H15.0413L15.7484 13.2516ZM16.3797 14.244L17.3719 14.1196L17.358 14.0085L17.3198 13.9033L16.3797 14.244ZM14.7563 12.6204L15.0971 11.6803L14.9916 11.6421L14.8804 11.6282L14.7563 12.6204ZM14.6126 12.5848L14.2593 13.5203L14.2593 13.5203L14.6126 12.5848ZM14.5405 12.5523L15.0079 11.6683L14.9093 11.6161L14.8016 11.587L14.5405 12.5523ZM14.3617 12.5104L14.1666 13.4912L14.1666 13.4912L14.3617 12.5104ZM12.7969 12.6645L12.4142 11.7406L12.7969 12.6645ZM11.125 17.875H10.125V18.875H11.125V17.875ZM15.338 17.4186L14.7824 16.5871L14.7824 16.5871L15.338 17.4186ZM16.3355 16.2031L15.4116 15.8204V15.8204L16.3355 16.2031ZM16.4896 14.6383L17.4704 14.4432L17.4704 14.4432L16.4896 14.6383ZM16.4477 14.4594L17.413 14.1983L17.3839 14.0908L17.3319 13.9923L16.4477 14.4594ZM16.4153 14.3875L17.3508 14.0343L17.3508 14.0343L16.4153 14.3875ZM26.0623 1.97533C25.8855 1.91003 25.695 1.87475 25.4988 1.875L25.5013 3.875C25.4556 3.87506 25.4109 3.86679 25.3697 3.85157L26.0623 1.97533ZM26.629 2.33126C26.4698 2.17737 26.2773 2.05426 26.0607 1.97472L25.3714 3.85218C25.3204 3.83346 25.2756 3.80462 25.2391 3.76934L26.629 2.33126ZM27.0399 2.98053C26.9548 2.72798 26.811 2.50662 26.6279 2.33022L25.2401 3.77037C25.1983 3.73005 25.1646 3.67854 25.1445 3.61911L27.0399 2.98053ZM27.1249 3.47759C27.1226 3.30479 27.0928 3.1367 27.0393 2.97875L25.1451 3.62089C25.1326 3.58402 25.1257 3.5446 25.1251 3.50431L27.1249 3.47759ZM27.1042 3.76034C27.1194 3.66696 27.1264 3.57155 27.1249 3.47512L25.1251 3.50678C25.1248 3.48456 25.1264 3.46228 25.13 3.4403L27.1042 3.76034ZM23.988 11.0152C25.6629 8.91337 26.7405 6.39915 27.1077 3.73695L25.1265 3.46369C24.8084 5.76993 23.8748 7.94799 22.4239 9.76883L23.988 11.0152ZM18.1328 15.463C20.4212 14.492 22.4348 12.9644 23.988 11.0152L22.4239 9.76883C21.0783 11.4573 19.334 12.7807 17.3515 13.6219L18.1328 15.463ZM18.4142 17.0641C18.7655 16.2162 18.874 15.2887 18.7296 14.3848L16.7547 14.7002C16.8408 15.2395 16.776 15.7929 16.5665 16.2988L18.4142 17.0641ZM16.588 19.2894C17.4034 18.7445 18.039 17.9702 18.4142 17.0641L16.5665 16.2988C16.3426 16.8393 15.9634 17.3014 15.4769 17.6264L16.588 19.2894ZM13.8333 20.125C14.814 20.125 15.7726 19.8342 16.588 19.2894L15.4769 17.6264C14.9904 17.9515 14.4184 18.125 13.8333 18.125V20.125ZM10.5 20.125H13.8333V18.125H10.5V20.125ZM8.875 18.5C8.875 19.3975 9.60254 20.125 10.5 20.125V18.125C10.7071 18.125 10.875 18.2929 10.875 18.5H8.875ZM8.875 15.1667V18.5H10.875V15.1667H8.875ZM9.71063 12.412C9.1658 13.2274 8.875 14.186 8.875 15.1667H10.875C10.875 14.5816 11.0485 14.0096 11.3736 13.5231L9.71063 12.412ZM11.9359 10.5858C11.0298 10.9611 10.2555 11.5966 9.71063 12.412L11.3736 13.5231C11.6986 13.0366 12.1607 12.6574 12.7012 12.4335L11.9359 10.5858ZM14.6154 10.2704C13.7114 10.126 12.7838 10.2345 11.9359 10.5858L12.7012 12.4335C13.2071 12.224 13.7606 12.1592 14.2999 12.2454L14.6154 10.2704ZM17.9849 5.0121C16.0358 6.5653 14.5082 8.5788 13.5371 10.8673L15.3782 11.6485C16.2194 9.66603 17.5428 7.92174 19.2313 6.57622L17.9849 5.0121ZM25.264 1.89224C22.6015 2.25931 20.087 3.33699 17.9849 5.0121L19.2313 6.57622C21.0523 5.12508 23.2306 4.19149 25.5372 3.8735L25.264 1.89224ZM25.5013 1.875C25.4136 1.87489 25.3269 1.88188 25.2419 1.89554L25.5593 3.8702C25.5393 3.87341 25.519 3.87503 25.4988 3.875L25.5013 1.875ZM16.1848 8.69696C15.6122 9.49159 15.1248 10.3477 14.7324 11.2515L16.567 12.0479C16.9021 11.276 17.3185 10.5448 17.8075 9.8661L16.1848 8.69696ZM20.5954 11.5232C19.8742 10.208 18.7921 9.12589 17.4769 8.40471L16.5153 10.1584C17.4964 10.6964 18.3037 11.5037 18.8417 12.4848L20.5954 11.5232ZM17.7486 14.2677C18.6524 13.8753 19.5085 13.3879 20.3031 12.8154L19.134 11.1927C18.4553 11.6817 17.7241 12.098 16.9522 12.4331L17.7486 14.2677ZM15.9252 13.0748C16.142 13.2917 16.3226 13.5397 16.4619 13.8092L18.2389 12.8915C18.0056 12.4397 17.7029 12.0241 17.3394 11.6606L15.9252 13.0748ZM15.1908 12.5382C15.4604 12.6774 15.7084 12.858 15.9252 13.0748L17.3394 11.6606C16.976 11.2972 16.5603 10.9945 16.1086 10.7612L15.1908 12.5382ZM15.0413 13.9587C15.219 14.1364 15.3546 14.3503 15.4395 14.5847L17.3198 13.9033C17.1355 13.3947 16.8413 12.9303 16.4555 12.5445L15.0413 13.9587ZM14.4155 13.5606C14.6498 13.6455 14.8636 13.781 15.0413 13.9587L16.4555 12.5445C16.0698 12.1588 15.6056 11.8646 15.0971 11.6803L14.4155 13.5606ZM14.2593 13.5203C14.3811 13.5663 14.5062 13.597 14.6322 13.6127L14.8804 11.6282C14.91 11.6319 14.9388 11.639 14.9658 11.6493L14.2593 13.5203ZM14.0731 13.4363C14.133 13.468 14.1951 13.4961 14.2593 13.5203L14.9658 11.6493C14.98 11.6546 14.9941 11.6609 15.0079 11.6683L14.0731 13.4363ZM14.1666 13.4912C14.2046 13.4987 14.2422 13.5075 14.2794 13.5176L14.8016 11.587C14.7209 11.5651 14.6392 11.546 14.5568 11.5296L14.1666 13.4912ZM13.1796 13.5884C13.4917 13.4591 13.8352 13.4252 14.1666 13.4912L14.5568 11.5296C13.8374 11.3865 13.0918 11.4599 12.4142 11.7406L13.1796 13.5884ZM12.4129 14.2176C12.6006 13.9366 12.8674 13.7177 13.1796 13.5884L12.4142 11.7406C11.7366 12.0213 11.1574 12.4966 10.75 13.1064L12.4129 14.2176ZM12.125 15.1667C12.125 14.8288 12.2252 14.4985 12.4129 14.2176L10.75 13.1064C10.3425 13.7163 10.125 14.4332 10.125 15.1667H12.125ZM12.125 17.875V15.1667H10.125V17.875H12.125ZM13.8333 16.875H11.125V18.875H13.8333V16.875ZM14.7824 16.5871C14.5015 16.7748 14.1712 16.875 13.8333 16.875V18.875C14.5668 18.875 15.2837 18.6575 15.8936 18.25L14.7824 16.5871ZM15.4116 15.8204C15.2823 16.1326 15.0634 16.3994 14.7824 16.5871L15.8936 18.25C16.5034 17.8426 16.9787 17.2634 17.2594 16.5858L15.4116 15.8204ZM15.5088 14.8334C15.5748 15.1648 15.5409 15.5083 15.4116 15.8204L17.2594 16.5858C17.5401 15.9082 17.6135 15.1626 17.4704 14.4432L15.5088 14.8334ZM15.4824 14.7205C15.4925 14.7578 15.5013 14.7954 15.5088 14.8334L17.4704 14.4432C17.454 14.3607 17.4348 14.2791 17.413 14.1983L15.4824 14.7205ZM15.4798 14.7408C15.504 14.8048 15.5319 14.8668 15.5635 14.9265L17.3319 13.9923C17.3392 14.0061 17.3455 14.0201 17.3508 14.0343L15.4798 14.7408ZM15.3874 14.3684C15.4032 14.4941 15.4338 14.6191 15.4798 14.7408L17.3508 14.0343C17.361 14.0613 17.3682 14.09 17.3719 14.1196L15.3874 14.3684Z" fill="#FF0000" mask="url(#path-2-outside-1_442_45)"/>
</g>
<defs>
<clipPath id="clip0_442_45">
<rect width="24" height="24" fill="white" transform="translate(2 2)"/>
</clipPath>
<clipPath id="clip1_442_45">
<rect width="20" height="20" fill="white" transform="translate(8 1)"/>
</clipPath>
</defs>
</svg>
